<svg xmlns="http://www.w3.org/2000/svg" viewBox="0 0 420 320" role="img" aria-labelledby="title desc">
  <title id="title">Award Third Place</title>
  <desc id="desc">A professional blue and silver trophy-style award placeholder.</desc>
  <defs>
    <linearGradient id="bg" x1="0" x2="1" y1="0" y2="1">
      <stop offset="0" stop-color="#082f49"/>
      <stop offset="1" stop-color="#0f766e"/>
    </linearGradient>
    <linearGradient id="glass" x1="0" x2="1" y1="0" y2="1">
      <stop offset="0" stop-color="#ffffff" stop-opacity=".9"/>
      <stop offset=".55" stop-color="#7dd3fc" stop-opacity=".55"/>
      <stop offset="1" stop-color="#1e40af" stop-opacity=".75"/>
    </linearGradient>
  </defs>
  <rect width="420" height="320" rx="24" fill="#f8fafc"/>
  <rect x="18" y="18" width="384" height="284" rx="20" fill="url(#bg)"/>
  <path d="M206 40c24 26 36 55 31 87 26 15 42 39 42 67 0 46-31 78-69 78s-69-32-69-78c0-29 16-53 42-68-7-34 2-60 23-86Z" fill="url(#glass)" stroke="#e0f2fe" stroke-width="5"/>
  <path d="M190 64c-7 23-8 43-2 63-18 11-29 27-29 50 0 31 21 55 51 55 27 0 49-21 51-49" fill="none" stroke="#ffffff" stroke-opacity=".7" stroke-width="7" stroke-linecap="round"/>
  <rect x="128" y="236" width="164" height="22" rx="11" fill="#e2e8f0"/>
  <rect x="104" y="260" width="212" height="28" rx="10" fill="#0f172a"/>
  <text x="210" y="203" text-anchor="middle" font-family="Inter, Arial, sans-serif" font-size="42" font-weight="900" fill="#ffffff">3rd</text>
  <text x="210" y="282" text-anchor="middle" font-family="Inter, Arial, sans-serif" font-size="18" font-weight="800" fill="#f8fafc">South Africa Award</text>
</svg>
